<svg width="68" height="12" viewBox="0 0 68 12" fill="none" xmlns="http://www.w3.org/2000/svg">
<path d="M1.02596 3.00153C1.00865 5.00171 0.991347 7.00189 0.97404 9.00207C1.43518 10.669 1.90354 11.5025 2.37911 11.5026C3.00355 11.5028 3.62798 11.5029 4.25242 11.5031C24.0525 11.5076 43.8526 11.5121 63.6527 11.5166C64.3441 11.5168 65.0355 11.5169 65.7268 11.5171C66.1355 11.5172 66.5513 10.6839 66.9744 9.01713C66.9917 7.01695 67.009 5.01677 67.0263 3.01659C66.6321 1.34967 66.2307 0.516172 65.822 0.516079C65.1307 0.515921 64.4393 0.515763 63.7479 0.515605C43.9478 0.511087 24.1477 0.506569 4.34761 0.502051C3.72317 0.501908 3.09873 0.501766 2.4743 0.501624C1.99873 0.501515 1.51595 1.33482 1.02596 3.00153Z" fill="white"/>
</svg>
