<svg width="68" height="67" viewBox="0 0 68 67" fill="none" xmlns="http://www.w3.org/2000/svg">
<path d="M28.3379 0.00878906C43.265 0.387072 55.249 12.6068 55.249 27.625L55.2402 28.3379C55.1158 33.2492 53.7078 37.8409 51.3418 41.793L67.4883 57.9395L59.0029 66.4248L43.0918 50.5137C38.6784 53.5018 33.3562 55.249 27.625 55.249L26.9121 55.2402C12.2217 54.8683 0.381072 43.0282 0.00878906 28.3379L0 27.625C0 12.3683 12.3683 0 27.625 0L28.3379 0.00878906ZM27.625 8C16.7866 8 8 16.7866 8 27.625C8.00017 38.4633 16.7867 47.249 27.625 47.249C38.4632 47.2489 47.2489 38.4632 47.249 27.625C47.249 16.7867 38.4633 8.00017 27.625 8Z" fill="white"/>
</svg>
